<svg width="33" height="48" viewBox="0 0 33 48" fill="none" xmlns="http://www.w3.org/2000/svg">
<path d="M26.9211 0H6.07895C4.46671 0 2.92051 0.601796 1.78048 1.673C0.640459 2.74421 0 4.19707 0 5.71198V41.6159C0 43.1308 0.640459 44.5837 1.78048 45.6549C2.92051 46.7261 4.46671 47.3279 6.07895 47.3279H26.9211C28.5333 47.3279 30.0795 46.7261 31.2195 45.6549C32.3595 44.5837 33 43.1308 33 41.6159V5.71198C33 4.19707 32.3595 2.74421 31.2195 1.673C30.0795 0.601796 28.5333 0 26.9211 0ZM5.21053 13.056H27.7895V34.2719H5.21053V13.056ZM6.07895 4.89599H26.9211C27.1514 4.89599 27.3723 4.98196 27.5351 5.13499C27.698 5.28801 27.7895 5.49557 27.7895 5.71198V8.15998H5.21053V5.71198C5.21053 5.49557 5.30202 5.28801 5.46488 5.13499C5.62774 4.98196 5.84863 4.89599 6.07895 4.89599ZM26.9211 42.4319H6.07895C5.84863 42.4319 5.62774 42.3459 5.46488 42.1929C5.30202 42.0398 5.21053 41.8323 5.21053 41.6159V39.1679H27.7895V41.6159C27.7895 41.8323 27.698 42.0398 27.5351 42.1929C27.3723 42.3459 27.1514 42.4319 26.9211 42.4319Z" fill="#F7F7F7"/>
</svg>
