<svg width="44" height="36" viewBox="0 0 44 36" fill="none" xmlns="http://www.w3.org/2000/svg">
<path d="M27.6766 0C24.73 0.00155783 21.8386 0.86945 19.3086 2.51178C16.7786 4.1541 14.7042 6.50974 13.305 9.32925C11.677 9.14639 10.0319 9.32554 8.46966 9.85582C6.90743 10.3861 5.46075 11.2564 4.21765 12.4138C2.97454 13.5712 1.961 14.9914 1.23868 16.5882C0.516369 18.1849 0.100383 19.9247 0.0160352 21.7018C-0.0683125 23.4788 0.180742 25.2559 0.748045 26.925C1.31535 28.5941 2.18904 30.1203 3.31596 31.4107C4.44289 32.701 5.79948 33.7286 7.30321 34.4309C8.80694 35.1332 10.4264 35.4956 12.063 35.4959H27.6766C32.0058 35.4959 36.1578 33.626 39.219 30.2976C42.2802 26.9692 44 22.455 44 17.7479C44 13.0409 42.2802 8.52664 39.219 5.19825C36.1578 1.86987 32.0058 0 27.6766 0ZM27.6766 30.866H12.063C9.99245 30.9125 7.98974 30.0629 6.4954 28.504C5.00105 26.9451 4.13748 24.8046 4.09466 22.5534C4.05184 20.3022 4.83328 18.1247 6.26706 16.4999C7.70085 14.8752 9.66953 13.9363 11.74 13.8897C11.4816 15.1565 11.3519 16.4503 11.3532 17.7479C11.3532 18.3619 11.5776 18.9507 11.9769 19.3849C12.3761 19.819 12.9177 20.0629 13.4824 20.0629C14.0471 20.0629 14.5886 19.819 14.9879 19.3849C15.3872 18.9507 15.6115 18.3619 15.6115 17.7479C15.6115 15.1534 16.3191 12.6172 17.6449 10.4599C18.9706 8.3027 20.8549 6.62132 23.0595 5.62845C25.2641 4.63558 27.69 4.3758 30.0304 4.88196C32.3708 5.38812 34.5206 6.63749 36.2079 8.47208C37.8953 10.3067 39.0444 12.6441 39.5099 15.1887C39.9754 17.7334 39.7365 20.371 38.8233 22.768C37.9101 25.165 36.3637 27.2138 34.3796 28.6552C32.3955 30.0966 30.0629 30.866 27.6766 30.866Z" fill="#F7F7F7"/>
</svg>
