<svg width="117" height="117" viewBox="0 0 117 117" fill="none" xmlns="http://www.w3.org/2000/svg">
<g clip-path="url(#clip0_31_74)">
<path d="M103.106 28.7136C95.9687 18.017 85.225 10.2414 72.8335 6.80417C60.442 3.36698 47.228 4.4971 35.6001 9.98853C23.9723 15.48 14.7049 24.967 9.48737 36.7203C4.26983 48.4736 3.44955 61.7105 7.17606 74.0181C10.9026 86.3256 18.9277 96.8843 29.7886 103.769C40.6495 110.654 53.6229 113.407 66.344 111.526C79.065 109.645 90.6865 103.256 99.0901 93.5221C107.494 83.7885 112.12 71.3592 112.125 58.4999C112.129 47.8979 108.991 37.5325 103.106 28.7136ZM94.965 82.8748C89.1144 91.6187 80.3166 97.9692 70.1753 100.769C60.0339 103.568 49.2242 102.631 39.7164 98.1265C30.2086 93.6224 22.6358 85.8519 18.3782 76.2312C14.1207 66.6105 13.4619 55.7802 16.5219 45.7143C19.5819 35.6485 26.157 27.0173 35.0487 21.394C43.9405 15.7706 54.5568 13.5296 64.9628 15.0793C75.3687 16.6289 84.8713 21.8662 91.7387 29.8364C98.606 37.8066 102.381 47.9792 102.375 58.4999C102.37 67.1789 99.7915 75.6616 94.965 82.8748ZM73.125 53.6249V43.8749C73.125 39.9961 71.5842 36.2761 68.8415 33.5334C66.0987 30.7907 62.3788 29.2499 58.5 29.2499C54.6212 29.2499 50.9013 30.7907 48.1586 33.5334C45.4159 36.2761 43.875 39.9961 43.875 43.8749V53.6249C42.5821 53.6249 41.3421 54.1385 40.4279 55.0527C39.5136 55.9669 39 57.2069 39 58.4999V77.9999C39 79.2928 39.5136 80.5328 40.4279 81.447C41.3421 82.3612 42.5821 82.8748 43.875 82.8748H73.125C74.4179 82.8748 75.6579 82.3612 76.5722 81.447C77.4864 80.5328 78 79.2928 78 77.9999V58.4999C78 57.2069 77.4864 55.9669 76.5722 55.0527C75.6579 54.1385 74.4179 53.6249 73.125 53.6249ZM65.8125 53.6249H51.1875V43.8749C51.1875 41.9355 51.9579 40.0755 53.3293 38.7041C54.7007 37.3328 56.5606 36.5624 58.5 36.5624C60.4394 36.5624 62.2994 37.3328 63.6707 38.7041C65.0421 40.0755 65.8125 41.9355 65.8125 43.8749V53.6249Z" fill="url(#paint0_linear_31_74)"/>
<path opacity="0.5" d="M94.0388 73.4173C94.4015 73.048 94.6982 72.6193 94.9162 72.1498C95.1325 71.6748 95.2487 71.1604 95.2575 70.6385C95.2421 70.1332 95.1261 69.636 94.9162 69.176C94.6982 68.7065 94.4015 68.2778 94.0388 67.9085C93.6403 67.5714 93.1752 67.3222 92.6738 67.1773C92.1748 67.0787 91.6614 67.0787 91.1625 67.1773C90.5229 67.1834 89.8979 67.3693 89.3587 67.7135C88.8283 68.0548 88.3923 68.5243 88.0912 69.0785H78V72.491H87.9937C88.2848 73.0808 88.7425 73.5723 89.31 73.9048C89.8664 74.2506 90.5074 74.4362 91.1625 74.441C91.6614 74.5396 92.1748 74.5396 92.6738 74.441C93.2022 74.2106 93.6696 73.8601 94.0388 73.4173ZM92.625 70.6385C92.6318 70.8196 92.6012 71.0002 92.535 71.1689C92.4689 71.3376 92.3686 71.4908 92.2404 71.6189C92.1123 71.7471 91.9591 71.8474 91.7903 71.9136C91.6216 71.9797 91.4411 72.0104 91.26 72.0035C91.0841 72.0489 90.8996 72.0489 90.7238 72.0035C90.3935 71.8651 90.1309 71.6025 89.9925 71.2723C89.9471 71.0964 89.9471 70.9119 89.9925 70.736C89.9857 70.5549 90.0163 70.3744 90.0825 70.2057C90.1486 70.037 90.2489 69.8838 90.3771 69.7556C90.5052 69.6275 90.6584 69.5272 90.8271 69.461C90.9959 69.3948 91.1764 69.3642 91.3575 69.371C91.5327 69.3209 91.7185 69.3209 91.8938 69.371C92.0806 69.4205 92.2496 69.522 92.3813 69.6635C92.5214 69.7763 92.6235 69.9295 92.6738 70.1023C92.7239 70.2775 92.7239 70.4633 92.6738 70.6385H92.625ZM93.8925 51.431L100.327 44.996C100.717 46.2635 101.059 47.531 101.351 48.7985L95.2575 54.8435H86.7263V58.4998H83.3138V51.6748L93.8925 51.431ZM47.775 92.6248H51.1387V98.1823L48.4575 100.912C47.19 100.62 45.9225 100.279 44.7038 99.8885L47.775 96.8173V92.6248ZM60.255 89.651V82.8748H56.8425V89.846C56.274 90.1456 55.7884 90.581 55.4287 91.1135C55.0845 91.6526 54.8987 92.2776 54.8925 92.9173C54.8925 93.887 55.2777 94.817 55.9634 95.5026C56.6491 96.1883 57.5791 96.5735 58.5488 96.5735C59.0008 96.6472 59.4617 96.6472 59.9137 96.5735C60.3641 96.3898 60.7771 96.1255 61.1325 95.7935C61.463 95.4554 61.7275 95.0586 61.9125 94.6235C62.1072 94.1949 62.207 93.7293 62.205 93.2585C62.1985 92.603 62.0136 91.9617 61.67 91.4034C61.3265 90.8451 60.8373 90.3909 60.255 90.0898V89.651ZM59.5238 93.6973C59.3328 93.8922 59.0878 94.0254 58.8204 94.0798C58.553 94.1341 58.2755 94.1071 58.0236 94.0021C57.7717 93.8972 57.5571 93.7191 57.4074 93.491C57.2577 93.2629 57.1798 92.9951 57.1837 92.7223C57.1769 92.5412 57.2075 92.3606 57.2737 92.1919C57.3399 92.0232 57.4402 91.87 57.5683 91.7419C57.6965 91.6137 57.8497 91.5134 58.0184 91.4472C58.1871 91.3811 58.3677 91.3504 58.5488 91.3573C58.8216 91.3533 59.0894 91.4312 59.3175 91.5809C59.5456 91.7306 59.7236 91.9453 59.8286 92.1971C59.9335 92.449 59.9606 92.7266 59.9063 92.994C59.8519 93.2614 59.7187 93.5063 59.5238 93.6973ZM102.375 58.4998C102.399 58.8406 102.399 59.1827 102.375 59.5235L97.5 64.3985H78V60.986H96.0375L102.375 54.8435C102.375 56.0623 102.375 57.281 102.375 58.4998ZM72.345 39.4385L86.97 24.8135C87.8604 25.5255 88.707 26.2906 89.505 27.1048L73.125 43.5335C73.0884 42.1353 72.825 40.7523 72.345 39.4385ZM25.8375 67.031C25.3383 66.9349 24.8254 66.9349 24.3262 67.031C23.8248 67.1759 23.3597 67.4251 22.9613 67.7623C22.5985 68.1316 22.3017 68.5603 22.0838 69.0298C21.8739 69.4897 21.7579 69.9869 21.7425 70.4923C21.7513 71.0141 21.8675 71.5285 22.0838 72.0035C22.3017 72.473 22.5985 72.9017 22.9613 73.271C23.3597 73.6082 23.8248 73.8574 24.3262 74.0023C24.8254 74.0984 25.3383 74.0984 25.8375 74.0023C26.493 73.9958 27.1344 73.8109 27.6927 73.4673C28.251 73.1237 28.7051 72.6345 29.0062 72.0523H39V68.6398H29.25C28.9039 68.0413 28.3973 67.5516 27.7875 67.226C27.1652 66.994 26.4934 66.9268 25.8375 67.031ZM26.715 71.516C26.47 71.7634 26.1369 71.9037 25.7887 71.906H25.3013C25.1144 71.8565 24.9454 71.7551 24.8138 71.6135C24.708 71.5586 24.6146 71.4827 24.5392 71.3905C24.4638 71.2984 24.4079 71.1918 24.375 71.0773C24.3249 70.902 24.3249 70.7163 24.375 70.541C24.352 70.363 24.352 70.1828 24.375 70.0048L24.6675 69.566L25.1063 69.2735H25.6425C25.9153 69.2696 26.1831 69.3475 26.4112 69.4972C26.6394 69.6469 26.8174 69.8615 26.9223 70.1134C27.0273 70.3653 27.0543 70.6428 27 70.9102C26.9457 71.1776 26.8124 71.4226 26.6175 71.6135L26.715 71.516ZM83.3138 80.096L91.1138 87.7498C90.3338 88.5785 89.505 89.3098 88.6763 90.0898L81.9487 83.411H76.2937V90.9185L81.1687 95.7935C80.145 96.3785 79.0725 96.866 78 97.4023L73.125 92.6248V83.5085H68.25V90.5285H64.8375V82.8748H73.125C74.0461 82.9137 74.9568 82.6678 75.7332 82.1706C76.5096 81.6734 77.1138 80.949 77.4638 80.096H83.3138ZM58.5 19.9873C57.5306 19.9881 56.6013 20.3739 55.9163 21.0598C55.5736 21.3865 55.3016 21.7801 55.1172 22.2161C54.9327 22.6521 54.8396 23.1214 54.8438 23.5948C54.8814 24.2514 55.0825 24.8881 55.4287 25.4473C55.7723 26.0183 56.2598 26.489 56.8425 26.8123V29.2498H58.5C59.084 29.2018 59.671 29.2018 60.255 29.2498V26.8123C60.8377 26.489 61.3252 26.0183 61.6687 25.4473C62.0219 24.8942 62.2081 24.251 62.205 23.5948C62.1458 22.6332 61.7283 21.7287 61.035 21.0598C60.3436 20.4135 59.4453 20.0334 58.5 19.9873ZM59.6212 24.3748C59.4745 24.5877 59.2722 24.7563 59.0362 24.8623C58.7855 24.9602 58.507 24.9602 58.2562 24.8623C57.9792 24.84 57.7192 24.7199 57.5227 24.5234C57.3262 24.3268 57.206 24.0668 57.1837 23.7898C57.0858 23.539 57.0858 23.2606 57.1837 23.0098C57.2897 22.7739 57.4583 22.5715 57.6712 22.4248C57.922 22.279 58.2105 22.2112 58.5 22.2298H59.0362L59.475 22.5223L59.7675 22.961C59.7905 23.139 59.7905 23.3193 59.7675 23.4973C59.8111 23.7979 59.7599 24.1046 59.6212 24.3748ZM43.875 82.8748H44.1188V92.3323L39 97.4998C37.9275 96.9635 36.9525 96.3785 35.9287 95.7935L40.8037 90.9185V85.4098L36.855 89.4073H28.9087V90.7723C28.4148 90.3757 27.9429 89.9526 27.495 89.5048C26.7637 88.8223 26.1788 87.9935 25.4963 87.2135V85.9948H35.2463L40.1212 81.1198C40.1119 81.2496 40.1119 81.3799 40.1212 81.5098C40.6151 81.9894 41.2049 82.3591 41.8519 82.5944C42.4989 82.8296 43.1884 82.9252 43.875 82.8748ZM20.3775 64.3985L14.625 58.7435C14.625 57.1348 14.625 55.5748 14.625 53.8685L21.645 60.8398H39V64.2523L20.3775 64.3985ZM25.2525 40.9985C25.4109 41.6475 25.7488 42.2388 26.2275 42.7048C26.8818 43.3363 27.7557 43.6892 28.665 43.6892C29.5743 43.6892 30.4482 43.3363 31.1025 42.7048C31.7021 42.0344 32.0335 41.1666 32.0335 40.2673C32.0335 39.3679 31.7021 38.5001 31.1025 37.8298C30.6487 37.3831 30.0862 37.0627 29.4706 36.9003C28.8549 36.7378 28.2076 36.7389 27.5925 36.9035L23.205 32.3698C22.5225 33.2473 21.8887 34.1248 21.3037 35.051L25.4963 38.9998C25.2837 39.6467 25.2668 40.342 25.4475 40.9985H25.2525ZM27.9825 38.9998C28.2396 38.7768 28.5685 38.6541 28.9087 38.6541C29.249 38.6541 29.5779 38.7768 29.835 38.9998C29.9612 39.1285 30.0606 39.2809 30.1275 39.4483C30.1944 39.6156 30.2276 39.7946 30.225 39.9748C30.2226 40.323 30.0824 40.656 29.835 40.901C29.5779 41.124 29.249 41.2467 28.9087 41.2467C28.5685 41.2467 28.2396 41.124 27.9825 40.901C27.7973 40.6271 27.6957 40.3054 27.69 39.9748C27.689 39.628 27.7908 39.2887 27.9825 38.9998ZM39.4388 79.9985H21.5962L20.8162 80.7785C20.2312 79.7548 19.6463 78.7798 19.1588 77.7073L20.28 76.586H39V77.9998C39.0235 78.6872 39.1722 79.3645 39.4388 79.9985ZM68.25 93.8435L73.125 98.9623V99.6935C72.0037 100.084 70.8825 100.522 69.7125 100.815V100.425L65.52 96.2323L68.25 93.8435ZM86.1413 38.9998C85.5039 39.1039 84.9109 39.392 84.435 39.8285C83.8354 40.4989 83.504 41.3667 83.504 42.266C83.504 43.1654 83.8354 44.0332 84.435 44.7035C85.1053 45.3031 85.9731 45.6346 86.8725 45.6346C87.7719 45.6346 88.6397 45.3031 89.31 44.7035C89.7326 44.2351 90.0336 43.67 90.1866 43.058C90.3396 42.446 90.3399 41.8057 90.1875 41.1935L95.7937 35.5873C95.2087 34.661 94.6238 33.7348 93.99 32.8573L87.9937 38.9998C87.3881 38.829 86.7469 38.829 86.1413 38.9998ZM88.3837 42.3148C88.4292 42.4907 88.4292 42.6752 88.3837 42.851C88.3213 43.0069 88.2394 43.1544 88.14 43.2898C88.0179 43.4194 87.8679 43.5194 87.7012 43.5823C87.3558 43.7134 86.9742 43.7134 86.6288 43.5823C86.4622 43.5194 86.3121 43.4194 86.19 43.2898C85.967 43.0327 85.8443 42.7038 85.8443 42.3635C85.8443 42.0232 85.967 41.6944 86.19 41.4373C86.4537 41.2263 86.7787 41.1065 87.1163 41.096C87.4376 41.1134 87.745 41.233 87.9937 41.4373C88.1322 41.5434 88.2482 41.676 88.335 41.8273C88.365 41.9552 88.3814 42.0859 88.3837 42.2173V42.3148ZM95.0137 77.2685L97.0612 79.316C96.4762 80.3398 95.94 81.4123 95.3062 82.3873L92.625 79.5598L95.0137 77.2685ZM23.01 53.6248L16.2337 46.946C16.575 45.776 16.965 44.5573 17.4037 43.3873L24.375 50.3098H31.395V47.141H34.8075V53.6248H23.01ZM69.9075 20.9135H66.495V15.4048C67.665 15.4048 68.7863 15.8923 69.9075 16.1848V20.9135ZM72.6375 28.2748C73.0522 28.5126 73.5247 28.6307 74.0025 28.616C74.5457 28.6085 75.0797 28.475 75.5625 28.226C76.0647 27.9973 76.5008 27.6451 76.83 27.2023C77.1733 26.7593 77.4072 26.2415 77.5125 25.691C77.6336 25.1616 77.6336 24.6117 77.5125 24.0823L80.925 20.6698L77.7562 18.9635L75.1237 21.596C74.5014 21.426 73.8449 21.426 73.2225 21.596C72.5975 21.7448 72.0348 22.0858 71.6137 22.571C71.0142 23.2414 70.6827 24.1092 70.6827 25.0085C70.6827 25.9079 71.0142 26.7757 71.6137 27.446C71.8732 27.8346 72.225 28.1529 72.6375 28.3723V28.2748ZM73.125 24.3748C73.3821 24.1518 73.711 24.0291 74.0512 24.0291C74.3915 24.0291 74.7204 24.1518 74.9775 24.3748C75.1071 24.4969 75.2072 24.6469 75.27 24.8135C75.4011 25.159 75.4011 25.5406 75.27 25.886C75.2072 26.0526 75.1071 26.2027 74.9775 26.3248C74.7204 26.5477 74.3915 26.6705 74.0512 26.6705C73.711 26.6705 73.3821 26.5477 73.125 26.3248C72.8746 26.0619 72.735 25.7128 72.735 25.3498C72.735 24.9868 72.8746 24.6377 73.125 24.3748ZM45.63 16.5748L52.7475 23.741V30.4685C51.5193 31.0075 50.371 31.7129 49.335 32.5648V25.106L42.1687 17.891C43.2994 17.3938 44.4546 16.9545 45.63 16.5748ZM39.585 26.861L34.71 21.986C35.685 21.3523 36.7087 20.816 37.7812 20.231L42.1687 24.6185L39.585 26.861ZM30.1763 25.106L44.8012 39.731C44.314 41.0662 44.0027 42.4592 43.875 43.8748L27.69 27.3973C28.47 26.6173 29.25 25.8373 30.1763 25.106Z" fill="url(#paint1_linear_31_74)"/>
</g>
<defs>
<linearGradient id="paint0_linear_31_74" x1="58.5" y1="4.85303" x2="58.5" y2="112.103" gradientUnits="userSpaceOnUse">
<stop stop-color="#3F3F59"/>
<stop offset="1" stop-color="#252541"/>
</linearGradient>
<linearGradient id="paint1_linear_31_74" x1="58.509" y1="15.4048" x2="58.509" y2="100.912" gradientUnits="userSpaceOnUse">
<stop stop-color="#3F3F59"/>
<stop offset="1" stop-color="#252541"/>
</linearGradient>
<clipPath id="clip0_31_74">
<rect width="117" height="117" fill="white"/>
</clipPath>
</defs>
</svg>
