<svg width="44" height="48" viewBox="0 0 44 48" fill="none" xmlns="http://www.w3.org/2000/svg">
<path d="M22 0C17.6488 0 13.3953 1.38787 9.77746 3.98809C6.15958 6.58832 3.33979 10.2841 1.67466 14.6081C0.00953229 18.9321 -0.426141 23.6902 0.422734 28.2805C1.27161 32.8709 3.36691 37.0874 6.44366 40.3968C9.52041 43.7063 13.4404 45.9601 17.708 46.8732C21.9756 47.7862 26.3991 47.3176 30.419 45.5265C34.439 43.7355 37.8749 40.7024 40.2923 36.8109C42.7097 32.9194 44 28.3442 44 23.6639C43.9935 17.39 41.6736 11.375 37.5492 6.93869C33.4248 2.50235 27.8328 0.00695944 22 0ZM22 40.9736C20.1988 38.7062 18.7919 36.1085 17.8465 33.3048H26.1617C25.6237 34.8902 24.9413 36.4146 24.1246 37.8557C23.4962 38.9553 22.7857 39.998 22 40.9736ZM16.6039 28.0461C16.2006 25.1408 16.2006 22.1871 16.6039 19.2817H27.4002C27.8035 22.1871 27.8035 25.1408 27.4002 28.0461H16.6039ZM4.8889 23.6639C4.88884 22.1871 5.05505 20.7156 5.3839 19.2817H11.662C11.3225 22.1918 11.3225 25.1361 11.662 28.0461H5.3839C5.05505 26.6122 4.88884 25.1408 4.8889 23.6639ZM22 6.3542C23.8012 8.62165 25.2081 11.2194 26.1535 14.0231H17.8424C18.3804 12.4376 19.0627 10.9133 19.8794 9.47214C20.5066 8.37273 21.2158 7.32998 22 6.3542ZM32.3339 19.2817H38.612C39.272 22.1601 39.272 25.1678 38.612 28.0461H32.338C32.6775 25.1361 32.6775 22.1918 32.338 19.2817H32.3339ZM36.5648 14.0231H31.3113C30.5773 11.3727 29.5153 8.84044 28.1539 6.49443C31.6456 7.95245 34.6 10.5956 36.5689 14.0231H36.5648ZM15.8461 6.49443C14.4847 8.84044 13.4228 11.3727 12.6887 14.0231H7.43112C9.39998 10.5956 12.3544 7.95245 15.8461 6.49443ZM7.43112 33.3048H12.6887C13.4228 35.9552 14.4847 38.4874 15.8461 40.8334C12.3544 39.3754 9.39998 36.7322 7.43112 33.3048ZM28.1539 40.8334C29.5153 38.4874 30.5773 35.9552 31.3113 33.3048H36.5689C34.6 36.7322 31.6456 39.3754 28.1539 40.8334Z" fill="#F7F7F7"/>
</svg>
