<svg width="117" height="117" viewBox="0 0 117 117" fill="none" xmlns="http://www.w3.org/2000/svg">
<path d="M107.256 7.3042H9.745C4.37145 7.3042 0 11.6759 0 17.0495V80.602C0 85.9756 4.37145 90.3473 9.745 90.3473H41.1632L35.2 103.497C34.5843 104.855 34.7001 106.433 35.508 107.686C36.3159 108.939 37.7047 109.696 39.1956 109.696H77.8047C77.8047 109.696 77.8088 109.696 77.8106 109.696C80.2339 109.696 82.1981 107.732 82.1981 105.309C82.1981 104.579 82.0211 103.89 81.7049 103.286L75.8368 90.3473H107.255C112.629 90.3473 117 85.9756 117 80.602V17.0495C117.001 11.6759 112.629 7.3042 107.256 7.3042ZM108.226 80.6023C108.226 81.1373 107.791 81.5723 107.256 81.5723H9.745C9.21031 81.5723 8.77507 81.1373 8.77507 80.6023V17.0495C8.77507 16.5145 9.21031 16.0793 9.745 16.0793H107.256C107.79 16.0793 108.226 16.5145 108.226 17.0495L108.226 80.6023Z" fill="url(#paint0_linear_31_88)"/>
<path d="M79.1851 29.9445C78.9292 29.7889 72.7676 26.1235 58.5002 26.1235C44.2337 26.1235 38.0707 29.7889 37.8156 29.9445C37.0028 30.4409 36.5242 31.34 36.5649 32.2909C36.5769 32.5712 36.8896 39.263 39.5127 47.7898C41.0586 52.8149 43.0924 57.4441 45.5585 61.5532C48.6727 66.7416 52.4867 71.1083 56.895 74.5318C57.3668 74.8989 57.9331 75.0826 58.5002 75.0826C59.0674 75.0826 59.6337 74.8989 60.1055 74.5318C64.5132 71.1083 68.3271 66.7416 71.4417 61.5532C73.9075 57.4441 75.9418 52.8149 77.4877 47.7898C80.1112 39.263 80.4238 32.5712 80.4355 32.2909C80.4762 31.34 79.9974 30.4409 79.1851 29.9445ZM68.2201 42.6423L56.6478 54.2128C56.3135 54.5498 55.8683 54.7338 55.3962 54.7338C54.9226 54.7338 54.4774 54.5498 54.1411 54.2128L48.7801 48.8416C48.0901 48.1507 48.0901 47.0281 48.7801 46.3369L49.8123 45.3044C50.1481 44.9721 50.5936 44.7881 51.0663 44.7881C51.539 44.7881 51.9821 44.9703 52.3156 45.3044L55.395 48.3736L64.6732 39.0957C65.0084 38.7596 65.4521 38.5748 65.9263 38.5748C66.3995 38.5748 66.8447 38.7596 67.1773 39.0957L68.2195 40.1373C68.9104 40.8279 68.9104 41.9514 68.2201 42.6423Z" fill="url(#paint1_linear_31_88)"/>
<defs>
<linearGradient id="paint0_linear_31_88" x1="58.5" y1="7.3042" x2="58.5" y2="109.696" gradientUnits="userSpaceOnUse">
<stop stop-color="#3F3F59"/>
<stop offset="1" stop-color="#252541"/>
</linearGradient>
<linearGradient id="paint1_linear_31_88" x1="58.5002" y1="26.1235" x2="58.5002" y2="75.0826" gradientUnits="userSpaceOnUse">
<stop stop-color="#3F3F59"/>
<stop offset="1" stop-color="#252541"/>
</linearGradient>
</defs>
</svg>
