<svg width="44" height="48" viewBox="0 0 44 48" fill="none" xmlns="http://www.w3.org/2000/svg">
<path d="M41.7241 20.0233H24.2759V16.3827H25.0345C25.5326 16.3827 26.0258 16.265 26.486 16.0363C26.9462 15.8076 27.3644 15.4724 27.7166 15.0498C28.0688 14.6273 28.3482 14.1256 28.5389 13.5735C28.7295 13.0213 28.8276 12.4296 28.8276 11.832V4.55076C28.8276 3.95314 28.7295 3.36138 28.5389 2.80926C28.3482 2.25713 28.0688 1.75546 27.7166 1.33289C27.3644 0.910309 26.9462 0.575103 26.486 0.346406C26.0258 0.117709 25.5326 0 25.0345 0H18.9655C17.9595 0 16.9947 0.479453 16.2834 1.33289C15.572 2.18632 15.1724 3.34382 15.1724 4.55076V11.832C15.1724 12.4296 15.2705 13.0213 15.4611 13.5735C15.6518 14.1256 15.9312 14.6273 16.2834 15.0498C16.9947 15.9033 17.9595 16.3827 18.9655 16.3827H19.7241V20.0233H2.27586C1.67227 20.0233 1.09339 20.311 0.666585 20.8231C0.239778 21.3351 0 22.0296 0 22.7538C0 23.4779 0.239778 24.1724 0.666585 24.6845C1.09339 25.1966 1.67227 25.4842 2.27586 25.4842H7.58621V30.9451H6.82759C5.82159 30.9451 4.8568 31.4246 4.14546 32.278C3.43411 33.1315 3.03448 34.289 3.03448 35.4959V42.7771C3.03448 43.984 3.43411 45.1415 4.14546 45.995C4.8568 46.8484 5.82159 47.3279 6.82759 47.3279H12.8966C13.9025 47.3279 14.8673 46.8484 15.5787 45.995C16.29 45.1415 16.6897 43.984 16.6897 42.7771V35.4959C16.6897 34.289 16.29 33.1315 15.5787 32.278C14.8673 31.4246 13.9025 30.9451 12.8966 30.9451H12.1379V25.4842H31.8621V30.9451H31.1034C30.0975 30.9451 29.1327 31.4246 28.4213 32.278C27.71 33.1315 27.3103 34.289 27.3103 35.4959V42.7771C27.3103 43.984 27.71 45.1415 28.4213 45.995C29.1327 46.8484 30.0975 47.3279 31.1034 47.3279H37.1724C38.1784 47.3279 39.1432 46.8484 39.8545 45.995C40.5659 45.1415 40.9655 43.984 40.9655 42.7771V35.4959C40.9655 34.289 40.5659 33.1315 39.8545 32.278C39.1432 31.4246 38.1784 30.9451 37.1724 30.9451H36.4138V25.4842H41.7241C42.3277 25.4842 42.9066 25.1966 43.3334 24.6845C43.7602 24.1724 44 23.4779 44 22.7538C44 22.0296 43.7602 21.3351 43.3334 20.8231C42.9066 20.311 42.3277 20.0233 41.7241 20.0233ZM19.7241 5.46091H24.2759V10.9218H19.7241V5.46091ZM12.1379 41.867H7.58621V36.406H12.1379V41.867ZM36.4138 41.867H31.8621V36.406H36.4138V41.867Z" fill="#F7F7F7"/>
</svg>
