<svg width="44" height="48" viewBox="0 0 44 48" fill="none" xmlns="http://www.w3.org/2000/svg">
<path d="M31.8776 16.545C32.1055 16.7893 32.2863 17.0796 32.4097 17.3992C32.533 17.7188 32.5966 18.0614 32.5966 18.4075C32.5966 18.7535 32.533 19.0962 32.4097 19.4158C32.2863 19.7354 32.1055 20.0256 31.8776 20.2699L20.4702 32.5401C20.2431 32.7852 19.9732 32.9797 19.6761 33.1124C19.379 33.2451 19.0604 33.3134 18.7387 33.3134C18.417 33.3134 18.0984 33.2451 17.8013 33.1124C17.5042 32.9797 17.2343 32.7852 17.0072 32.5401L12.1183 27.2814C11.891 27.0369 11.7106 26.7465 11.5875 26.4269C11.4645 26.1074 11.4011 25.7649 11.4011 25.419C11.4011 25.0731 11.4645 24.7306 11.5875 24.4111C11.7106 24.0915 11.891 23.8011 12.1183 23.5566C12.3457 23.312 12.6157 23.118 12.9128 22.9856C13.2098 22.8532 13.5283 22.7851 13.8498 22.7851C14.1714 22.7851 14.4898 22.8532 14.7869 22.9856C15.084 23.118 15.3539 23.312 15.5813 23.5566L18.7407 26.9506L28.4187 16.5385C28.6461 16.2944 28.916 16.101 29.213 15.9692C29.51 15.8375 29.8282 15.77 30.1494 15.7706C30.4707 15.7712 30.7886 15.8399 31.0852 15.9728C31.3817 16.1057 31.651 16.3001 31.8776 16.545ZM44 23.6639C44 28.3442 42.7097 32.9194 40.2923 36.8109C37.8749 40.7024 34.439 43.7355 30.419 45.5265C26.3991 47.3176 21.9756 47.7862 17.708 46.8732C13.4404 45.9601 9.52041 43.7063 6.44366 40.3968C3.36691 37.0874 1.27161 32.8709 0.422734 28.2805C-0.426141 23.6902 0.00953221 18.9321 1.67466 14.6081C3.33979 10.2841 6.15958 6.58832 9.77746 3.98809C13.3953 1.38787 17.6488 0 22 0C27.8328 0.00695944 33.4248 2.50235 37.5492 6.93869C41.6736 11.375 43.9935 17.39 44 23.6639ZM39.1111 23.6639C39.1111 20.0237 38.1076 16.4652 36.2274 13.4385C34.3472 10.4118 31.6748 8.05272 28.5481 6.65967C25.4215 5.26662 21.981 4.90213 18.6618 5.6123C15.3426 6.32247 12.2937 8.07541 9.90062 10.6494C7.50759 13.2235 5.87792 16.503 5.21768 20.0732C4.55745 23.6435 4.8963 27.3442 6.1914 30.7073C7.4865 34.0704 9.67968 36.945 12.4936 38.9674C15.3075 40.9897 18.6157 42.0692 22 42.0692C26.5367 42.064 30.8861 40.1232 34.094 36.6727C37.3019 33.2221 39.1063 28.5437 39.1111 23.6639Z" fill="#F7F7F7"/>
</svg>
