<svg width="44" height="36" viewBox="0 0 44 36" fill="none" xmlns="http://www.w3.org/2000/svg">
<path d="M44 18.4894C44 19.0777 43.7602 19.6419 43.3334 20.0579C42.9066 20.4739 42.3277 20.7076 41.7241 20.7076H37.0624L30.104 34.2703C29.9149 34.6386 29.6244 34.9483 29.265 35.1647C28.9056 35.3812 28.4915 35.4958 28.069 35.4959H27.9552C27.5138 35.4741 27.0885 35.3276 26.7312 35.0742C26.3739 34.8207 26.1 34.4714 25.9429 34.0688L15.7414 7.98043L10.4159 19.4136C10.2341 19.8001 9.94234 20.1274 9.57517 20.3569C9.20801 20.5863 8.78095 20.708 8.34483 20.7076H2.27586C1.67227 20.7076 1.09339 20.4739 0.666585 20.0579C0.239778 19.6419 0 19.0777 0 18.4894C0 17.901 0.239778 17.3368 0.666585 16.9208C1.09339 16.5048 1.67227 16.2711 2.27586 16.2711H6.87879L13.86 1.29797C14.0462 0.899977 14.3489 0.564515 14.7302 0.333766C15.1114 0.103016 15.5542 -0.0127198 16.0027 0.00110925C16.4513 0.0149383 16.8856 0.157715 17.2511 0.411488C17.6167 0.665261 17.8971 1.0187 18.0571 1.42737L28.3516 27.7616L33.6202 17.4911C33.81 17.1239 34.1009 16.8154 34.4602 16.5999C34.8196 16.3845 35.2333 16.2706 35.6552 16.2711H41.7241C42.3277 16.2711 42.9066 16.5048 43.3334 16.9208C43.7602 17.3368 44 17.901 44 18.4894Z" fill="#F7F7F7"/>
</svg>
