<svg width="117" height="117" viewBox="0 0 117 117" fill="none" xmlns="http://www.w3.org/2000/svg">
<path d="M112.821 54.3214H108.465C107.463 42.5141 102.317 31.4417 93.9374 23.0625C85.5583 14.6834 74.4859 9.53745 62.6786 8.53473V4.17857C62.6786 3.07035 62.2383 2.00751 61.4547 1.22387C60.6711 0.440241 59.6082 0 58.5 0C57.3918 0 56.3289 0.440241 55.5453 1.22387C54.7617 2.00751 54.3214 3.07035 54.3214 4.17857V8.53473C42.5141 9.53745 31.4417 14.6834 23.0625 23.0625C14.6834 31.4417 9.53745 42.5141 8.53473 54.3214H4.17857C3.07035 54.3214 2.00751 54.7617 1.22387 55.5453C0.440241 56.3289 0 57.3918 0 58.5C0 59.6082 0.440241 60.6711 1.22387 61.4547C2.00751 62.2383 3.07035 62.6786 4.17857 62.6786H8.53473C9.53745 74.4859 14.6834 85.5583 23.0625 93.9374C31.4417 102.317 42.5141 107.463 54.3214 108.465V112.821C54.3214 113.93 54.7617 114.992 55.5453 115.776C56.3289 116.56 57.3918 117 58.5 117C59.6082 117 60.6711 116.56 61.4547 115.776C62.2383 114.992 62.6786 113.93 62.6786 112.821V108.465C74.4859 107.463 85.5583 102.317 93.9374 93.9374C102.317 85.5583 107.463 74.4859 108.465 62.6786H112.821C113.93 62.6786 114.992 62.2383 115.776 61.4547C116.56 60.6711 117 59.6082 117 58.5C117 57.3918 116.56 56.3289 115.776 55.5453C114.992 54.7617 113.93 54.3214 112.821 54.3214ZM96.1071 62.6786H100.077C99.0987 72.2638 94.8443 81.2183 88.0313 88.0313C81.2183 94.8443 72.2638 99.0987 62.6786 100.077V96.1071C62.6786 94.9989 62.2383 93.9361 61.4547 93.1524C60.6711 92.3688 59.6082 91.9286 58.5 91.9286C57.3918 91.9286 56.3289 92.3688 55.5453 93.1524C54.7617 93.9361 54.3214 94.9989 54.3214 96.1071V100.077C44.7362 99.0987 35.7817 94.8443 28.9687 88.0313C22.1557 81.2183 17.9013 72.2638 16.9232 62.6786H20.8929C22.0011 62.6786 23.0639 62.2383 23.8476 61.4547C24.6312 60.6711 25.0714 59.6082 25.0714 58.5C25.0714 57.3918 24.6312 56.3289 23.8476 55.5453C23.0639 54.7617 22.0011 54.3214 20.8929 54.3214H16.9232C17.9013 44.7362 22.1557 35.7817 28.9687 28.9687C35.7817 22.1557 44.7362 17.9013 54.3214 16.9232V20.8929C54.3214 22.0011 54.7617 23.0639 55.5453 23.8476C56.3289 24.6312 57.3918 25.0714 58.5 25.0714C59.6082 25.0714 60.6711 24.6312 61.4547 23.8476C62.2383 23.0639 62.6786 22.0011 62.6786 20.8929V16.9232C72.2638 17.9013 81.2183 22.1557 88.0313 28.9687C94.8443 35.7817 99.0987 44.7362 100.077 54.3214H96.1071C94.9989 54.3214 93.9361 54.7617 93.1524 55.5453C92.3688 56.3289 91.9286 57.3918 91.9286 58.5C91.9286 59.6082 92.3688 60.6711 93.1524 61.4547C93.9361 62.2383 94.9989 62.6786 96.1071 62.6786ZM79.3929 58.5C79.3929 62.6322 78.1675 66.6716 75.8718 70.1074C73.576 73.5433 70.313 76.2212 66.4953 77.8025C62.6777 79.3838 58.4768 79.7976 54.424 78.9914C50.3712 78.1852 46.6484 76.1954 43.7265 73.2735C40.8046 70.3516 38.8147 66.6288 38.0086 62.576C37.2024 58.5232 37.6162 54.3223 39.1975 50.5047C40.7788 46.687 43.4567 43.424 46.8925 41.1282C50.3284 38.8325 54.3678 37.6071 58.5 37.6071C64.0411 37.6071 69.3553 39.8083 73.2735 43.7265C77.1917 47.6447 79.3929 52.9589 79.3929 58.5Z" fill="url(#paint0_linear_151_54)"/>
<defs>
<linearGradient id="paint0_linear_151_54" x1="58.5" y1="0" x2="58.5" y2="117" gradientUnits="userSpaceOnUse">
<stop stop-color="#3F3F59"/>
<stop offset="1" stop-color="#252541"/>
</linearGradient>
</defs>
</svg>
