<svg width="44" height="48" viewBox="0 0 44 48" fill="none" xmlns="http://www.w3.org/2000/svg">
<path d="M39.9259 0H4.07407C2.99356 0 1.95731 0.541991 1.19327 1.50674C0.429232 2.47149 0 3.77997 0 5.14433V42.1835C0 43.5479 0.429232 44.8564 1.19327 45.8211C1.95731 46.7859 2.99356 47.3279 4.07407 47.3279H39.9259C41.0064 47.3279 42.0427 46.7859 42.8067 45.8211C43.5708 44.8564 44 43.5479 44 42.1835V5.14433C44 3.77997 43.5708 2.47149 42.8067 1.50674C42.0427 0.541991 41.0064 0 39.9259 0ZM39.1111 6.1732V12.3464H4.88889V6.1732H39.1111ZM4.88889 41.1547V18.5196H39.1111V41.1547H4.88889Z" fill="#F7F7F7"/>
</svg>
